# xmcd CD database file
#
# Track frame offsets:
#	150
#	15254
#	29580
#	46033
#	60756
#	63793
#	82776
#	100519
#	118620
#	136638
#	157180
#	171931
#
# Disc length: 2478 seconds
#
# Revision: 0
# Processed by: cddbd v1.5.2PL0 Copyright (c) Steve Scherf et al.
# Submitted via: CDex 1.70beta2
#
DISCID=7e09ac0c
DTITLE=Hilde Louise Asbjørnsen - Sound Your Horn
DYEAR=2008
DGENRE=Jazz
TTITLE0=Let's stay in
TTITLE1=It ain't Friday
TTITLE2=Sweet morning
TTITLE3=All you are to me
TTITLE4=Prelude to the stars
TTITLE5=The room
TTITLE6=This winter
TTITLE7=Look to the stars
TTITLE8=Desert song
TTITLE9=The darkest hour
TTITLE10=This love
TTITLE11=Sound your horn
EXTD=YEAR: 2008
EXTT0=
EXTT1=
EXTT2=
EXTT3=
EXTT4=
EXTT5=
EXTT6=
EXTT7=
EXTT8=
EXTT9=
EXTT10=
EXTT11=
PLAYORDER=
